<svg width="1544" height="1029" viewBox="0 0 1544 1029" fill="none" xmlns="http://www.w3.org/2000/svg">
<g clip-path="url(#clip0_793_4)">
<path d="M1544 0H0V1029H1544V0Z" fill="#1B3A2A"/>
<mask id="mask0_793_4" style="mask-type:luminance" maskUnits="userSpaceOnUse" x="0" y="0" width="1544" height="1029">
<path d="M1544 0H0V1029H1544V0Z" fill="white"/>
</mask>
<g mask="url(#mask0_793_4)">
<path d="M229.731 536.747C239.336 655.198 214.546 779.509 258.163 890.059C281.617 949.506 324.462 1003.68 326.848 1067.54C329.131 1128.62 292.211 1185.99 243.713 1223.21C195.215 1260.44 136.15 1280.81 77.8237 1299.16C7.02204 1321.43 -22.5692 1308.79 -47.6726 1238.48C-130.005 1007.86 -180.529 709.006 -112.446 468.206C-42.8389 222.021 211.316 309.665 229.731 536.747Z" fill="#294838"/>
</g>
<mask id="mask1_793_4" style="mask-type:luminance" maskUnits="userSpaceOnUse" x="0" y="0" width="1544" height="1029">
<path d="M1544 0H0V1029H1544V0Z" fill="white"/>
</mask>
<g mask="url(#mask1_793_4)">
<path d="M336.26 199.233C408.857 264.012 510.763 283.977 607.883 290.077C682.839 294.786 765.688 289.941 820.788 238.921C862.559 200.243 929.564 74.5528 893.766 5.40401C868.543 -43.315 807.096 -58.6615 752.677 -65.7081C647.589 -79.3136 417.288 -113.472 321.693 -68.2415C220.563 -20.393 264.397 135.109 336.26 199.233Z" fill="#0B2216"/>
</g>
<mask id="mask2_793_4" style="mask-type:luminance" maskUnits="userSpaceOnUse" x="0" y="0" width="1544" height="1029">
<path d="M1544 0H0V1029H1544V0Z" fill="white"/>
</mask>
<g mask="url(#mask2_793_4)">
<path d="M962.488 932.134C1012.22 849.074 1114.21 794.967 1208.47 817.127C1236.2 823.647 1266.75 835.874 1291.51 821.793C1351.47 787.706 1498.88 313.679 1557.47 450.427C1592.6 532.407 1593.54 601.471 1622.63 930.029C1638.31 1107.11 1631.26 1242.7 1431.02 1322.32C1160.16 1430.02 752.189 1283.38 962.488 932.134Z" fill="#0B2216"/>
</g>
<mask id="mask3_793_4" style="mask-type:luminance" maskUnits="userSpaceOnUse" x="0" y="0" width="1544" height="1029">
<path d="M1544 0H0V1029H1544V0Z" fill="white"/>
</mask>
<g mask="url(#mask3_793_4)">
<path d="M1010.14 365.166C996.155 428.46 1044.9 479.599 1096.48 406.106C1171.06 299.851 1239.32 173.716 1361.96 131.091C1371.31 177.322 1339.18 220.474 1311.11 258.38C1279.52 301.03 1165.56 473.468 1171.03 526.07C1173.93 553.928 1209.55 589.039 1245.28 528.612C1330.13 385.151 1388.33 223.318 1501.34 100.799C1537.49 61.6004 1582.3 16.9995 1572.5 -35.4157C1562.04 -91.3995 1494.76 -116.491 1437.79 -116.482C1252.21 -116.456 1299.7 -18.0936 1213.93 95.9032C1146.26 185.84 1036.01 248.109 1010.14 365.166Z" fill="#1D4530"/>
</g>
<mask id="mask4_793_4" style="mask-type:luminance" maskUnits="userSpaceOnUse" x="0" y="0" width="1544" height="1029">
<path d="M1544 0H0V1029H1544V0Z" fill="white"/>
</mask>
<g mask="url(#mask4_793_4)">
<path opacity="0.5" d="M292.454 75.8373C246.953 72.5733 202.89 52.1497 170.999 19.5407C187.53 130.218 272.487 56.9654 272.928 176.352C231.635 167.719 195.417 137.742 179.227 98.7984C175.47 202.534 252.139 155.928 229.01 277.252C172.545 247.322 164.209 178.464 170.719 114.884C156.094 159.001 119.491 195.222 75.2133 209.393C75.3039 171.631 99.1824 134.957 133.684 119.586C155.244 109.982 177.729 106.477 166.101 49.9127C144.615 114.952 86.5483 103.985 68.2427 124.252C82.4228 6.9519 152.541 60.0298 152.671 9.81047C152.689 2.65275 146.892 -6.12462 154.04 -12.4941C157.893 -15.9289 165.951 -18.2195 168.823 -12.169C169.9 -9.899 169.663 -7.21125 170.525 -4.85072C176.059 10.2982 200.02 0.0781886 210.466 -0.144075C227.977 -0.518631 260.471 13.8544 277.376 37.0152C279.653 40.1392 294.89 76.004 292.454 75.8373Z" fill="#051C10"/>
</g>
<mask id="mask5_793_4" style="mask-type:luminance" maskUnits="userSpaceOnUse" x="0" y="0" width="1544" height="1029">
<path d="M1544 0H0V1029H1544V0Z" fill="white"/>
</mask>
<g mask="url(#mask5_793_4)">
<path opacity="0.75" d="M527.968 -5.99099C560.993 -28.985 602.349 -42.4505 636.937 -21.8417C660.898 -7.5633 682.497 30.4973 684.727 54.3187C688.175 91.1692 655.788 109.737 635.724 95.5281C626.351 88.891 617.153 67.9838 602.407 72.8531C593.82 75.689 585.341 93.608 567.475 98.8394C541.96 106.314 538.444 82.7376 533.913 78.8665C528.507 74.2463 519.933 77.4836 514.854 82.4619C471.976 124.503 449.224 48.8362 527.968 -5.99099Z" fill="#111F17"/>
</g>
<mask id="mask6_793_4" style="mask-type:luminance" maskUnits="userSpaceOnUse" x="0" y="0" width="1544" height="1029">
<path d="M1544 0H0V1029H1544V0Z" fill="white"/>
</mask>
<g mask="url(#mask6_793_4)">
<path opacity="0.75" d="M1486.48 1062.54C1489.27 1102.35 1462.02 1105.84 1450.71 1087.06C1445.47 1078.37 1445.5 1072.95 1437.27 1014.3C1434.04 991.308 1423.4 995.545 1401.94 995.366C1326.9 994.736 1338.43 842.263 1370.39 871.479C1382.14 882.221 1380.11 933.853 1393.74 959.506C1400.36 971.954 1410.33 967.371 1410.43 954.918C1410.66 925.896 1376.44 889.54 1391.95 866.492C1397.74 857.894 1416.91 850.372 1420.33 881.207C1421.35 890.353 1429.84 945.472 1438.41 949.053C1469.28 961.955 1410.1 862.119 1437.98 849.833C1445.45 846.542 1454.42 851.681 1458.37 858.816C1466.3 873.144 1459.27 894.602 1474.47 947.256C1496.84 919.029 1459.52 879.585 1473.81 848.427C1477.07 841.327 1484.82 834.968 1492.17 837.625C1507.33 843.107 1518.29 900.344 1519.07 924.34C1520.82 977.373 1490.03 963.782 1479.71 981.51C1469.39 999.25 1485.12 1043.31 1486.48 1062.54Z" fill="#111F17"/>
</g>
<mask id="mask7_793_4" style="mask-type:luminance" maskUnits="userSpaceOnUse" x="0" y="0" width="1544" height="1029">
<path d="M1544 0H0V1029H1544V0Z" fill="white"/>
</mask>
<g mask="url(#mask7_793_4)">
<path opacity="0.75" d="M189.274 869.155C205.257 881.213 206.476 906.417 209.463 924.567C212.644 943.885 225.552 940.689 232.275 926.894C263.641 862.545 243.454 892.884 285.434 851.588C298.465 838.769 289.523 827.09 274.807 823.486C265.749 821.267 255.441 821.041 248.703 814.597C232.965 799.549 252.734 769.657 239.791 752.147C206.188 785.903 219.791 820.479 196.364 831.946C187.656 836.206 164.401 834.702 164.024 849.225C163.724 860.777 181.799 863.516 189.274 869.155Z" fill="#111F17"/>
</g>
<path d="M380.637 569.351C371.027 798.981 40.3333 705.953 167.884 515.002C254.019 386.06 384.678 472.765 380.637 569.351Z" fill="#1D4530"/>
<path d="M1101.72 768.861C1192.53 815.112 1176.65 960.29 1070.83 973.07C859.223 998.63 936.572 684.754 1101.72 768.861Z" fill="#294838"/>
<path opacity="0.75" d="M1102.97 792.087C1059.52 796.389 1116.35 687.405 1155.59 678.644C1186.14 671.82 1173.85 703.797 1197.12 705.244C1246.5 708.312 1265.86 641.073 1310.38 628.24C1365.61 612.325 1312.96 700.319 1280.44 747.591C1245.32 798.632 1213.23 785.526 1204.57 770.557C1166.62 704.968 1147.28 787.702 1102.97 792.087Z" fill="#111F17"/>
<mask id="mask8_793_4" style="mask-type:luminance" maskUnits="userSpaceOnUse" x="0" y="0" width="1544" height="1029">
<path d="M1544 0H0V1029H1544V0Z" fill="white"/>
</mask>
<g mask="url(#mask8_793_4)">
<path d="M1017.64 273.555C1059.54 231.949 1245.46 58.5933 1279.06 107.065C1291.41 124.871 1184.76 269.069 1017.64 273.555Z" stroke="#05180F" stroke-width="1.5" stroke-miterlimit="10" stroke-linecap="round" stroke-linejoin="round"/>
<path d="M1267.58 175.092C1185.47 284.518 1205.91 355.783 1274.31 409.488C1256.76 320.926 1253.3 318.307 1298.66 259.746C1363.73 175.767 1346.94 109.856 1326.67 108.561C1309.91 107.491 1277.22 162.236 1267.58 175.092Z" stroke="#05180F" stroke-width="1.5" stroke-miterlimit="10" stroke-linecap="round" stroke-linejoin="round"/>
<path d="M1250.03 56.965C1142.33 95.8283 1115.29 168.4 1039.28 146.142C1070.49 132.529 1091.62 103.498 1117.01 80.8296C1211.02 -3.07712 1376.71 -6.91734 1352.88 37.7865C1344.75 53.0404 1319.14 32.0262 1250.03 56.965Z" stroke="#05180F" stroke-width="1.5" stroke-miterlimit="10" stroke-linecap="round" stroke-linejoin="round"/>
<path d="M1436.99 211.48C1479.49 243.865 1511.61 232.214 1607.22 207.512C1579.59 175.907 1474.44 193.606 1435.87 115.396C1428.47 100.387 1421.06 59.0973 1398.94 84.1225C1368.31 118.788 1407.98 189.383 1436.99 211.48Z" stroke="#05180F" stroke-width="1.5" stroke-miterlimit="10" stroke-linecap="round" stroke-linejoin="round"/>
<path d="M1472.71 101.784C1486.14 150.594 1535.59 147.019 1549.86 176.062C1563.9 107.372 1537.96 98.7118 1514.46 75.7075C1493.46 55.1522 1505.84 9.13738 1484.75 24.0105C1468.91 35.1793 1468.45 86.2897 1472.71 101.784Z" stroke="#05180F" stroke-width="1.5" stroke-miterlimit="10" stroke-linecap="round" stroke-linejoin="round"/>
<path d="M1060.36 250.356C1133.2 222.33 1189.36 163.52 1256.2 123.237C1352.38 65.2734 1471.06 45.6771 1551.7 -34.5869" stroke="#05180F" stroke-width="1.5" stroke-miterlimit="10" stroke-linecap="round" stroke-linejoin="round"/>
<path d="M1247.86 337.748C1235.34 229.777 1308.3 195.388 1329 137.694C1336.69 116.271 1345.3 84.5382 1367.27 70.4121" stroke="#05180F" stroke-width="1.5" stroke-miterlimit="10" stroke-linecap="round" stroke-linejoin="round"/>
<path d="M1097.3 122.459C1303.94 -17.065 1347.52 35.1403 1415.53 50.2069" stroke="#05180F" stroke-width="1.5" stroke-miterlimit="10" stroke-linecap="round" stroke-linejoin="round"/>
<path d="M1536.83 144.966C1524.64 112.316 1457.74 69.4413 1507.3 1.75781" stroke="#05180F" stroke-width="1.5" stroke-miterlimit="10" stroke-linecap="round" stroke-linejoin="round"/>
<path d="M1568.45 205.139C1408.6 213.472 1371.58 79.8642 1447.07 35.8477" stroke="#05180F" stroke-width="1.5" stroke-miterlimit="10" stroke-linecap="round" stroke-linejoin="round"/>
</g>
<mask id="mask9_793_4" style="mask-type:luminance" maskUnits="userSpaceOnUse" x="0" y="0" width="1544" height="1029">
<path d="M1544 0H0V1029H1544V0Z" fill="white"/>
</mask>
<g mask="url(#mask9_793_4)">
<path d="M719.56 1040.26C757.68 1137.59 617.464 1177.97 523.513 1019.45C560.309 1006.86 598.815 1054.34 634.992 1040.07C644.882 1036.17 630.224 1019.49 608.972 1014.06C553.617 999.904 484.623 1025.89 491.492 898.136C521.419 927.907 568.544 931.661 603.908 954.714C648.799 983.979 642.893 962.596 629.569 953.467C591.078 927.092 534.739 914.089 524.911 877.745C515.122 841.547 553.913 812.902 558 777.825C585.427 800.397 570.979 853.979 638.751 893.623C648.709 899.449 650.81 893.211 649.369 890.2C639.661 869.929 620.797 855.159 605.118 838.684C536.419 766.5 620.805 741.005 639.788 712.134C629.207 772.48 667.597 825.818 676.496 823.214C697.808 816.985 647.712 743.403 667.162 715.161C670.738 709.971 672.245 709.327 710.526 679.807C704.326 697.999 715.166 718.31 730.491 729.915C766.269 757.01 809.326 747.019 803.185 783.324C794.289 835.92 764.15 855.821 760.883 875.564C760.377 878.618 763.893 880.816 766.44 879.052C799.5 856.163 807.856 809.557 820.891 776.638C887.876 909.613 850.787 884.211 779.977 925.322C764.432 934.346 769.309 943.885 774.153 945.122C781.106 946.898 831.057 923.206 865.282 879.468C871.388 895.516 881.451 932.91 874.53 948.149C867.31 964.043 849.464 966.422 792.574 979.927C787.553 981.118 787.298 988.264 792.257 989.696C810.985 995.103 855.539 987.595 882.367 953.556C880.936 979.768 868.624 1032.31 844.459 1040.97C831.106 1045.75 817.143 1039.19 790.297 1027.99C785.803 1026.12 781.138 1030.38 782.654 1035.01C789.295 1055.27 826.411 1065.45 853.581 1044.78C839.477 1061.86 803.862 1098.77 781.416 1098.98C757.517 1099.21 732.288 1064.35 730.335 1045.72C729.53 1038.04 734.921 1015.65 721.886 1015.71C713.388 1015.75 717.056 1033.87 719.56 1040.26Z" stroke="#05180F" stroke-width="1.5" stroke-miterlimit="10" stroke-linecap="round" stroke-linejoin="round"/>
<path d="M733.468 976.124C728.233 975.79 728.894 970.729 732.187 967.286C758.417 939.87 756.185 977.568 733.468 976.124Z" stroke="#05180F" stroke-width="1.5" stroke-miterlimit="10" stroke-linecap="round" stroke-linejoin="round"/>
<path d="M675.309 917.815C683.298 916.502 698.926 928.121 691.84 937.125C683.815 947.322 658.228 920.62 675.309 917.815Z" stroke="#05180F" stroke-width="1.5" stroke-miterlimit="10" stroke-linecap="round" stroke-linejoin="round"/>
<path d="M730.726 925.478C708.571 932.389 733.028 893.964 747.572 901.737C757.972 907.3 741.756 922.039 730.726 925.478Z" stroke="#05180F" stroke-width="1.5" stroke-miterlimit="10" stroke-linecap="round" stroke-linejoin="round"/>
<path d="M687.354 842.374C698.623 856.791 692.774 876.257 675.477 852.026C667.099 840.287 678.742 831.362 687.354 842.374Z" stroke="#05180F" stroke-width="1.5" stroke-miterlimit="10" stroke-linecap="round" stroke-linejoin="round"/>
<path d="M712.879 794.985C709.209 790.118 714.802 773.164 720.77 771.235C735.601 766.463 724.49 810.376 712.879 794.985Z" stroke="#05180F" stroke-width="1.5" stroke-miterlimit="10" stroke-linecap="round" stroke-linejoin="round"/>
<path d="M736.529 843.891C735.829 873.691 784.531 814.155 761.046 800.51C745.727 791.611 736.741 834.858 736.529 843.891Z" stroke="#05180F" stroke-width="1.5" stroke-miterlimit="10" stroke-linecap="round" stroke-linejoin="round"/>
<path d="M700.892 716.223C685.557 941.827 738.444 1070.96 736.585 1106.74C735.899 1119.93 731.175 1132.54 726.501 1144.9" stroke="#05180F" stroke-width="1.5" stroke-miterlimit="10" stroke-linecap="round" stroke-linejoin="round"/>
<path d="M611.595 766.739C612.301 787.51 636.624 854.675 665.674 881.02C679.224 893.31 695.436 900.118 704.404 916.061" stroke="#05180F" stroke-width="1.5" stroke-miterlimit="10" stroke-linecap="round" stroke-linejoin="round"/>
<path d="M743.44 754C774.726 776.547 710.701 816.937 700.426 869.98" stroke="#05180F" stroke-width="1.5" stroke-miterlimit="10" stroke-linecap="round" stroke-linejoin="round"/>
<path d="M555.63 837.336C576.951 939.36 666.775 933.013 713.085 979.118" stroke="#05180F" stroke-width="1.5" stroke-miterlimit="10" stroke-linecap="round" stroke-linejoin="round"/>
<path d="M830.839 834.037C825.112 901.237 731.685 921.012 710.699 964.247" stroke="#05180F" stroke-width="1.5" stroke-miterlimit="10" stroke-linecap="round" stroke-linejoin="round"/>
<path d="M813.826 1064.17C802.32 1073.54 784.49 1070.7 772.566 1061.87C748.529 1044.07 738.736 1007.5 715.296 993.777C733.622 984.757 757.435 985.131 776.803 978.651C786.553 975.389 840.298 949.752 859.065 919.306" stroke="#05180F" stroke-width="1.5" stroke-miterlimit="10" stroke-linecap="round" stroke-linejoin="round"/>
<path d="M514.996 944.208C566.551 1016.23 666.913 993.3 739.798 992.598C754.874 992.452 768.488 1000.93 782.862 1005.48C803.664 1012.06 854.818 1011.81 858.89 998.125" stroke="#05180F" stroke-width="1.5" stroke-miterlimit="10" stroke-linecap="round" stroke-linejoin="round"/>
<path d="M570.805 1054.88C594.751 1077.12 631.192 1060.55 652.369 1052.3C681.612 1040.91 699.803 1038.88 715.296 993.775" stroke="#05180F" stroke-width="1.5" stroke-miterlimit="10" stroke-linecap="round" stroke-linejoin="round"/>
<path d="M663.7 1110.19C705.717 1086 711.866 1042.11 715.296 993.779" stroke="#05180F" stroke-width="1.5" stroke-miterlimit="10" stroke-linecap="round" stroke-linejoin="round"/>
</g>
<mask id="mask10_793_4" style="mask-type:luminance" maskUnits="userSpaceOnUse" x="0" y="0" width="1544" height="1029">
<path d="M1544 0H0V1029H1544V0Z" fill="white"/>
</mask>
<g mask="url(#mask10_793_4)">
<path opacity="0.5" d="M1010.15 -66.2432C1054.35 50.3796 993.393 196.335 879.357 246.908C779.611 291.145 664.155 265.307 558.823 236.814C366.984 184.925 296.273 114.875 334.836 -110.951" stroke="#05180F" stroke-width="3" stroke-miterlimit="10" stroke-linecap="round" stroke-linejoin="round"/>
</g>
<mask id="mask11_793_4" style="mask-type:luminance" maskUnits="userSpaceOnUse" x="0" y="0" width="1544" height="1029">
<path d="M1544 0H0V1029H1544V0Z" fill="white"/>
</mask>
<g mask="url(#mask11_793_4)">
<path opacity="0.5" d="M872.055 -71.1244C894.748 10.2859 840.082 97.9464 765.686 138.084C691.292 178.221 602.656 180.795 518.269 175.731C441.693 171.135 400.771 152.469 382.235 70.6985C369.319 13.7207 372.872 -46.8894 392.357 -101.97" stroke="#05180F" stroke-width="3" stroke-miterlimit="10" stroke-linecap="round" stroke-linejoin="round"/>
</g>
<mask id="mask12_793_4" style="mask-type:luminance" maskUnits="userSpaceOnUse" x="0" y="0" width="1544" height="1029">
<path d="M1544 0H0V1029H1544V0Z" fill="white"/>
</mask>
<g mask="url(#mask12_793_4)">
<path opacity="0.5" d="M-77.521 388.995C-17.4944 356.446 66.6742 381.07 99.6746 440.834C135.252 505.266 123.78 650.699 86.3777 723.443C60.0309 774.689 11.4957 817.249 -45.7393 824.03C-43.835 821.696 -41.9308 819.36 -40.0265 817.026" stroke="#05180F" stroke-width="3" stroke-miterlimit="10" stroke-linecap="round" stroke-linejoin="round"/>
</g>
<mask id="mask13_793_4" style="mask-type:luminance" maskUnits="userSpaceOnUse" x="0" y="0" width="1544" height="1029">
<path d="M1544 0H0V1029H1544V0Z" fill="white"/>
</mask>
<g mask="url(#mask13_793_4)">
<path opacity="0.5" d="M-19.2359 465.867C40.453 480.234 86.1884 546.775 45.7026 634.506C32.3563 663.425 12.6425 688.862 -6.89835 714.017C-11.7033 720.203 -20.1706 726.962 -26.2725 722.049" stroke="#05180F" stroke-width="3" stroke-miterlimit="10" stroke-linecap="round" stroke-linejoin="round"/>
</g>
<mask id="mask14_793_4" style="mask-type:luminance" maskUnits="userSpaceOnUse" x="0" y="0" width="1544" height="1029">
<path d="M1544 0H0V1029H1544V0Z" fill="white"/>
</mask>
<g mask="url(#mask14_793_4)">
<path opacity="0.5" d="M482.436 1257.18C288.448 1016.36 340.767 679.344 438.823 620.133C467.754 602.663 521.994 607.118 505.596 662.201C488.19 720.675 441.829 766.103 417.722 822.151C342.645 996.718 511.155 1229.82 633.549 1235.22" stroke="#05180F" stroke-width="3" stroke-miterlimit="10" stroke-linecap="round" stroke-linejoin="round"/>
</g>
<mask id="mask15_793_4" style="mask-type:luminance" maskUnits="userSpaceOnUse" x="0" y="0" width="1544" height="1029">
<path d="M1544 0H0V1029H1544V0Z" fill="white"/>
</mask>
<g mask="url(#mask15_793_4)">
<path opacity="0.5" d="M1166.64 1156.57C1100.77 1098.07 1158.49 927.602 1296.38 867.381C1320.67 856.77 1347.42 849.213 1366.24 830.553C1391.14 805.88 1396.12 768.278 1405.62 734.547C1435.21 629.544 1524.2 543.487 1630.17 517.418" stroke="#05180F" stroke-width="3" stroke-miterlimit="10" stroke-linecap="round" stroke-linejoin="round"/>
</g>
<mask id="mask16_793_4" style="mask-type:luminance" maskUnits="userSpaceOnUse" x="0" y="0" width="1544" height="1029">
<path d="M1544 0H0V1029H1544V0Z" fill="white"/>
</mask>
<g mask="url(#mask16_793_4)">
<path opacity="0.5" d="M1307.79 582.574C1299.76 577.271 1297.18 566.709 1296.63 557.101C1293.45 500.773 1334.37 446.288 1366.17 403.407C1387.06 375.247 1423.08 305.401 1446.29 354.208C1467.86 399.579 1363.25 619.182 1307.79 582.574Z" stroke="#05180F" stroke-width="3" stroke-miterlimit="10" stroke-linecap="round" stroke-linejoin="round"/>
</g>
<mask id="mask17_793_4" style="mask-type:luminance" maskUnits="userSpaceOnUse" x="0" y="0" width="1544" height="1029">
<path d="M1544 0H0V1029H1544V0Z" fill="white"/>
</mask>
<g mask="url(#mask17_793_4)">
<path opacity="0.5" d="M224.456 1165.91C186.855 975.317 141.414 870.588 -53.3359 844.906" stroke="#05180F" stroke-width="3" stroke-miterlimit="10" stroke-linecap="round" stroke-linejoin="round"/>
</g>
<mask id="mask18_793_4" style="mask-type:luminance" maskUnits="userSpaceOnUse" x="0" y="0" width="1544" height="1029">
<path d="M1544 0H0V1029H1544V0Z" fill="white"/>
</mask>
<g mask="url(#mask18_793_4)">
<path opacity="0.5" d="M113.474 1115.29C118.466 1107.79 119.998 1098.49 120.125 1089.48C121.167 1015.46 29.8056 945.886 -33.3584 908.224" stroke="#05180F" stroke-width="3" stroke-miterlimit="10" stroke-linecap="round" stroke-linejoin="round"/>
</g>
</g>
<defs>
<clipPath id="clip0_793_4">
<rect width="1544" height="1029" fill="white"/>
</clipPath>
</defs>
</svg>
